<svg id="b8748c0b-ec65-40bd-85e7-d4eb7988ac38" data-name="图层 1" xmlns="http://www.w3.org/2000/svg" viewBox="0 0 447 447"><defs><style>.a6c1b88c-4440-4d5b-9615-ff8a68cb5508{stroke:#f15a24;stroke-miterlimit:10;stroke-width:20px;}.f212bf4c-2b5e-4df0-8490-400968bb6757{fill:#f15a24;}</style></defs><rect class="a6c1b88c-4440-4d5b-9615-ff8a68cb5508" x="10" y="10" width="427" height="427"/><path class="f212bf4c-2b5e-4df0-8490-400968bb6757" d="M239.3,257.6H206.92l-23.14-62.11H89.3L67.47,257.6H35.1L121.52,30.69h31.35Zm-64.6-87.75L140.42,75.52Q138.8,71,136.9,59.7h-.73a87.67,87.67,0,0,1-3.66,15.82l-34,94.33Z" transform="translate(62.75 84.48)"/><path class="f212bf4c-2b5e-4df0-8490-400968bb6757" d="M249.93,38.46a17.76,17.76,0,0,1,18-18,18.27,18.27,0,0,1,13.11,5.12,17.15,17.15,0,0,1,5.35,12.9,16.74,16.74,0,0,1-5.35,12.67,18.38,18.38,0,0,1-13.11,5,17.59,17.59,0,0,1-12.89-5A17.07,17.07,0,0,1,249.93,38.46ZM253.3,257.6v-162H282v162Z" transform="translate(62.75 84.48)"/></svg>