<svg id="bfbbe50d-5840-4b52-b53a-736a283faa9d" data-name="图层 1" xmlns="http://www.w3.org/2000/svg" viewBox="0 0 281.56 281.56"><defs><style>.b84baa3e-04ec-4808-b249-821e7d130a16{stroke:#39d302;stroke-miterlimit:10;stroke-width:12.6px;}.ae21fc31-ddcb-424c-914a-6b6de9e46c14{fill:#39d302;}</style></defs><rect class="b84baa3e-04ec-4808-b249-821e7d130a16" x="6.3" y="6.3" width="268.97" height="268.97"/><path class="ae21fc31-ddcb-424c-914a-6b6de9e46c14" d="M40.29,227.47V96.5H77.66q29.76,0,49.5,17.33t19.74,46.5q0,30.45-19.74,48.79T76.3,227.47ZM57.2,111.55v101h19q24.94,0,38.93-13.61t14-38.13q0-24.52-14.38-36.87T77,111.55Z" transform="translate(-19.97 -21.2)"/><path class="ae21fc31-ddcb-424c-914a-6b6de9e46c14" d="M281.22,134l-27.91,93.51H236.07l-18.6-65.61a45.4,45.4,0,0,1-1.53-9h-.33a38.76,38.76,0,0,1-2,8.8l-20.12,65.78H176.8L148.73,134H166l18.68,69.32a49.09,49.09,0,0,1,1.27,8.54h.68a39.88,39.88,0,0,1,1.6-8.79L208.33,134h15.31l19.61,69.41a50.82,50.82,0,0,1,1.36,8.62h.76a39.73,39.73,0,0,1,1.52-8.62L265.15,134Z" transform="translate(-19.97 -21.2)"/></svg>