<svg id="be57c23d-edfd-4b07-bd1e-4a2b748c59a1" data-name="图层 1" xmlns="http://www.w3.org/2000/svg" viewBox="0 0 457.47 452.96"><defs><style>.e513e2bf-df9e-4213-b165-9a5958ce9066{fill:#fff;}</style></defs><path class="e513e2bf-df9e-4213-b165-9a5958ce9066" d="M457.47,225.93c0,1.87,0,3.75-.07,5.62,0,.56,0,1.11,0,1.66s0,1-.05,1.5q-.1,2.89-.29,5.77a.21.21,0,0,0,0,.08c-.07.95-.13,1.89-.21,2.84-.14,1.92-.32,3.83-.51,5.74l-.3,2.8a1,1,0,0,0,0,.17c-.11.91-.22,1.82-.34,2.73s-.25,1.9-.38,2.84C443.08,344,382,414.74,300.75,441.47A231.46,231.46,0,0,1,155.29,441h0c-1.19-.4-2.38-.81-3.57-1.24A228.07,228.07,0,0,1,103.59,416c-.15-.09-.3-.18-.45-.29a228.37,228.37,0,0,1-84.27-99.34A224.84,224.84,0,0,1,0,229.31c0-.27,0-.54,0-.81,0-.86,0-1.71,0-2.57s0-2,0-2.92H0c0-1.64.06-3.28.12-4.91q0-.75.06-1.5c0-.62,0-1.24.08-1.86s0-1,.08-1.53q.19-3.67.53-7.32C9.66,108.68,82.94,23.53,183.35,4.34c100.9-19.28,199.47,26.84,247.48,115.8a222.39,222.39,0,0,1,26.41,95.74c.05,1.13.09,2.27.13,3.4s.06,2.27.07,3.4S457.47,224.85,457.47,225.93Z" transform="translate(0 0)"/><path d="M457.47,225.93c0,1.87,0,3.75-.07,5.62,0,.56,0,1.11,0,1.66s0,1-.05,1.5q-.1,2.89-.29,5.77a.21.21,0,0,0,0,.08c-.07.95-.13,1.89-.21,2.84-.14,1.92-.32,3.83-.51,5.74l-.3,2.8a1,1,0,0,0,0,.17c-.11.91-.22,1.82-.34,2.73s-.25,1.9-.38,2.84c-.19,1.35-.39,2.7-.61,4a224.55,224.55,0,0,1-62.76,123.66A229.67,229.67,0,0,1,305.7,440a32.19,32.19,0,0,1-4.95,1.45c-.1,0-.21,0-.31.06-9.79,1.58-15.05-2.85-15.05-12.75,0-19.66,0-39.33.21-59,.15-16-3-30.76-14.77-43,9.61-1.87,18.92-3.29,28-5.53,25.84-6.36,47.69-18.77,61.32-42.67,10.16-17.8,13.43-37.36,14.28-57.57.88-20.8-3-40.36-15.66-57.09-5.33-7.07-7.08-12.89-4.78-21.73,4-15.17,1.16-30.4-3.93-45.15-1-2.89-2.9-4.17-5.62-3.68-7.33,1.32-15.06,1.86-21.8,4.68-11.3,4.75-22.07,10.82-32.81,16.79a10.36,10.36,0,0,1-8.34,1.19,214.84,214.84,0,0,0-105.27,0,10.06,10.06,0,0,1-8.76-1.44c-13-8.46-26.48-16.3-41.86-19.48-19.7-4.07-16.79-3.22-21.12,12.85a76.35,76.35,0,0,0,.92,42.91,6.43,6.43,0,0,1-.91,5.22c-18.76,21.67-23.5,47.14-20.8,74.75,1.83,18.61,6.08,36.45,16.53,52.3,13.81,20.94,34.19,32.12,57.81,38.1,9.17,2.32,18.56,3.77,28.16,5.67a10.46,10.46,0,0,1-1.08,1.64A45.21,45.21,0,0,0,173.67,352c-.72,4.16-2.46,6.29-6.26,7.08-6.16,1.28-12.31,3.13-18.55,3.54-18.91,1.24-32.5-7.73-42.15-23.41-6.39-10.38-14.6-18.78-26.44-22.42-4.75-1.47-10.15-1.58-15.17-1.18-4.58.36-5.4,3.49-2.35,7A21.79,21.79,0,0,0,68,327.23c12.76,7.37,20.63,18.81,26,32,7.82,19.25,22.77,28.83,42.42,30.93,11.58,1.23,23.43-.1,35.91-.28v29.79c0,3.66.11,7.33,0,11-.27,7.06-4.33,11.07-11.44,11.06a22.13,22.13,0,0,1-5.53-.71h0a17.13,17.13,0,0,1-1.76-.55l-1.81-.69A271.49,271.49,0,0,1,103.59,416c-.15-.09-.3-.18-.45-.29-38.3-24.21-66.67-57.25-84.27-99.34a255.47,255.47,0,0,1-14-45A218,218,0,0,1,0,223H0c0-1.64.06-3.27.12-4.91q0-.75.06-1.5c0-.62,0-1.24.08-1.86s0-1,.08-1.53q.19-3.67.53-7.32C9.66,108.68,82.94,23.53,183.35,4.34c100.9-19.28,199.47,26.84,247.48,115.8a222.39,222.39,0,0,1,26.41,95.74c.05,1.13.09,2.27.13,3.4s.06,2.27.07,3.4S457.47,224.85,457.47,225.93Z" transform="translate(0 0)"/><path d="M148.33,374.54l-4.9-4.48c1.53-1.21,3.1-3.42,4.58-3.37,1.78.07,3.48,2.07,5.22,3.24Z" transform="translate(0 0)"/><path d="M112.91,351.86a75.36,75.36,0,0,1,5.15,7.34c.14.27-2.78,2.79-3,2.6a23.29,23.29,0,0,1-5.22-5.22C109.51,356.16,111.25,354.32,112.91,351.86Z" transform="translate(0 0)"/><path d="M130.22,372.14l-5.13-5.83c1.3-1,2.95-3,3.83-2.67,2,.68,3.71,2.46,5.53,3.8Z" transform="translate(0 0)"/><path d="M165.86,362.9l4.65,4.2c-1.74,1.38-3.3,3.35-5.27,3.92-1,.29-2.77-1.88-4.19-2.93C162.44,366.58,163.84,365.08,165.86,362.9Z" transform="translate(0 0)"/><path d="M101.82,338.88c2,3.17,3.45,5,4.25,7.08.22.56-1.6,1.89-2.48,2.86a35.71,35.71,0,0,1-4.41-5.24C98.86,343,100.33,341.44,101.82,338.88Z" transform="translate(0 0)"/><path d="M94.27,337.45a45,45,0,0,1-3.86-5.82c-.17-.35,1.42-1.52,2.19-2.31a30,30,0,0,1,3.92,4.24C96.79,334,95.5,335.39,94.27,337.45Z" transform="translate(0 0)"/><path d="M88.08,324.17c-1.7,1.07-2.76,2.21-3.36,2a18.4,18.4,0,0,1-3.9-2.47c.81-.77,1.76-2.28,2.4-2.16C84.64,321.83,85.91,322.92,88.08,324.17Z" transform="translate(0 0)"/></svg>