<?xml version="1.0" encoding="utf-8"?>
<!-- Generator: Adobe Illustrator 16.0.0, SVG Export Plug-In . SVG Version: 6.00 Build 0)  -->
<!DOCTYPE svg PUBLIC "-//W3C//DTD SVG 1.1//EN" "http://www.w3.org/Graphics/SVG/1.1/DTD/svg11.dtd">
<svg version="1.1" id="图层_1" xmlns="http://www.w3.org/2000/svg" xmlns:xlink="http://www.w3.org/1999/xlink" x="0px" y="0px"
	 width="200px" height="200px" viewBox="0 0 200 200" enable-background="new 0 0 200 200" xml:space="preserve">
<path fill="#FF5000" d="M100,14.286c47.321,0,85.715,38.393,85.715,85.714c0,37.836-24.551,69.979-58.594,81.364
	c-4.35,0.778-5.914-1.899-5.914-4.128c0-2.793,0.114-12.051,0.114-23.551c0-8.035-2.679-13.172-5.8-15.85
	c19.086-2.121,39.172-9.379,39.172-42.3c0-9.378-3.351-16.964-8.814-22.993c0.893-2.236,3.793-10.936-0.893-22.765
	c-7.144-2.235-23.551,8.814-23.551,8.814c-14.023-3.869-28.833-3.869-42.857,0c0,0-16.407-11.05-23.55-8.814
	c-4.686,11.829-1.786,20.536-0.893,22.765c-5.472,6.028-8.814,13.614-8.814,22.993c0,32.814,19.979,40.179,39.064,42.3
	c-2.457,2.235-4.686,6.028-5.472,11.492c-4.914,2.236-17.414,6.029-24.886-7.143c-4.686-8.15-13.171-8.814-13.171-8.814
	c-8.371-0.113-0.557,5.243-0.557,5.243c5.579,2.564,9.486,12.5,9.486,12.5c5.021,15.293,28.907,10.157,28.907,10.157
	c0,7.143,0.114,13.836,0.114,15.957c0,2.236-1.564,4.914-5.914,4.129C38.85,169.972,14.3,137.828,14.3,99.993
	c0-47.321,38.393-85.714,85.714-85.714L100,14.286z M46.764,137.386c0.222-0.45-0.114-1.007-0.778-1.336
	c-0.671-0.222-1.229-0.114-1.45,0.222c-0.221,0.45,0.114,1.007,0.779,1.336C45.872,137.943,46.543,137.828,46.764,137.386z
	 M50.221,141.186c0.45-0.336,0.336-1.114-0.221-1.785c-0.557-0.558-1.336-0.779-1.786-0.336c-0.45,0.336-0.336,1.114,0.221,1.785
	C48.993,141.407,49.771,141.629,50.221,141.186z M53.571,146.207c0.557-0.449,0.557-1.336,0-2.121
	c-0.45-0.779-1.335-1.114-1.9-0.672c-0.557,0.336-0.557,1.229,0,2.008c0.557,0.778,1.45,1.113,1.9,0.778V146.207z M58.257,150.893
	c0.45-0.449,0.221-1.449-0.45-2.121c-0.779-0.779-1.786-0.893-2.236-0.336c-0.557,0.45-0.335,1.45,0.45,2.121
	C56.8,151.336,57.807,151.45,58.257,150.893z M64.622,153.686c0.221-0.672-0.45-1.449-1.45-1.785
	c-0.893-0.222-1.9,0.113-2.122,0.778c-0.221,0.664,0.45,1.45,1.45,1.671c0.893,0.336,1.9,0,2.122-0.671V153.686z M71.65,154.242
	c0-0.777-0.893-1.335-1.9-1.229c-1.007,0-1.786,0.558-1.786,1.229c0,0.779,0.778,1.336,1.9,1.229
	C70.872,155.472,71.65,154.914,71.65,154.242z M78.122,153.129c-0.114-0.672-1.007-1.115-2.007-1.008
	c-1.007,0.222-1.671,0.893-1.564,1.672c0.114,0.672,1.007,1.114,2.007,0.893c1-0.221,1.671-0.893,1.564-1.564V153.129z"/>
</svg>
