<?xml version="1.0" encoding="utf-8"?>
<!-- Generator: Adobe Illustrator 24.1.2, SVG Export Plug-In . SVG Version: 6.00 Build 0)  -->
<svg version="1.1" id="图层_1" xmlns="http://www.w3.org/2000/svg" xmlns:xlink="http://www.w3.org/1999/xlink" x="0px" y="0px"
	 viewBox="0 0 150 150" style="enable-background:new 0 0 150 150;" xml:space="preserve">
<style type="text/css">
	.st0{fill:#FFFFFF;}
</style>
<g>
	<path class="st0" d="M149.9,75.2c0,26.8-14.1,50.3-35.2,63.6c-1.5,0.9-3.1,1.8-4.7,2.7c-10.5,5.6-22.4,8.7-35.2,8.7
		c-41.4,0-75-33.6-75-75c0-26.8,14.1-50.3,35.2-63.6c1.5-0.9,3.1-1.8,4.7-2.7c10.5-5.6,22.4-8.7,35.2-8.7
		C116.3,0.2,149.9,33.8,149.9,75.2z"/>
	<g>
		<path class="st0" d="M81.5,100.2c-0.8,0-1.6,0-2.5,0.1l-4.6,0.1l6.6-9.3l3.4-4.8l28.3-39.8V25.6H38.4v24.2h25.4
			c1.6,0,4.6-0.1,9.1-0.3l-5.4,7.7l-3.4,4.9l-28.9,41.2v21.6h78.8v-24.7H81.5z"/>
	</g>
	
		<rect x="-10.3" y="67.6" transform="matrix(0.6769 0.7361 -0.7361 0.6769 79.0917 -30.8674)" class="st0" width="170" height="14.1"/>
</g>
<g>
	<path d="M149,75.2c0,26.4-13.9,49.6-34.7,62.7c-1.5,0.9-3,1.8-4.6,2.6c-10.3,5.5-22.2,8.6-34.7,8.6c-40.9,0-74-33.1-74-74
		c0-26.4,13.9-49.6,34.7-62.7c1.5-0.9,3-1.8,4.6-2.7C50.7,4.4,62.5,1.2,75,1.2C115.9,1.2,149,34.4,149,75.2z"/>
	<g>
		<path class="st0" d="M81.7,100.3c-0.8,0-1.6,0-2.6,0.1l-4.7,0.1l6.7-9.4l3.4-4.8l28.5-40v-21H38.2v24.4h25.6
			c1.6,0,4.6-0.1,9.2-0.3l-5.4,7.7L64.2,62l-29.1,41.5v21.7h79.3v-24.9H81.7z"/>
	</g>
	<rect x="-9.3" y="68.9" transform="matrix(0.6769 0.7361 -0.7361 0.6769 79.1501 -30.8619)" width="168" height="11.6"/>
</g>
</svg>
