<svg id="b56861bb-24c1-4bcb-8884-ea2b77c16a6f" data-name="图层 1" xmlns="http://www.w3.org/2000/svg" viewBox="0 0 400 400"><defs><style>.ba8bd644-3546-4418-8adc-d5e81137da77{fill:#fff;}</style></defs><path d="M399.51,200.06A199.87,199.87,0,0,1,305.66,369.6q-6.06,3.79-12.41,7.16a198.92,198.92,0,0,1-93.75,23.3c-110.45,0-200-89.54-200-200A199.89,199.89,0,0,1,93.36,30.52q6.06-3.8,12.4-7.17A199.17,199.17,0,0,1,199.5.06C310,.06,399.51,89.61,399.51,200.06Z" transform="translate(0.49 -0.06)"/><path class="ba8bd644-3546-4418-8adc-d5e81137da77" d="M217.13,266.54q-3,0-6.78.26l-12.38.27,17.65-24.78,9.13-12.83,75.55-106V67.75H102.15v64.53H170q6.3,0,24.32-.77L180,151.94l-9.07,12.95-77,110v57.5h210.1V266.54Z" transform="translate(0.49 -0.06)"/><rect x="183.4" y="-28.17" width="31.21" height="453.33" transform="translate(-81.35 187.02) rotate(-42.6)"/></svg>