<svg id="fdd7ee70-3432-4215-9391-381571b4a30c" data-name="图层 1" xmlns="http://www.w3.org/2000/svg" viewBox="0 0 400 400"><defs><style>.edca8084-f2f4-41fd-b084-1e349e303e5e{fill:#fff;}</style></defs><path class="edca8084-f2f4-41fd-b084-1e349e303e5e" d="M400.9,200.48c0-110.45-89.55-200-200-200a199.17,199.17,0,0,0-93.74,23.29q-6.34,3.36-12.4,7.17C90,33.9,85.46,37.07,81,40.4L61.27,18.91,32.65,45.23,52.31,66.61A199.25,199.25,0,0,0,.9,200.48c0,110.46,89.54,200,200,200a198.92,198.92,0,0,0,93.75-23.3Q301,373.82,307,370q7.66-4.8,14.84-10.27l17.63,19.17,28.62-26.32-17.74-19.28A199.24,199.24,0,0,0,400.9,200.48Zm-95.46,84L289.37,267h16.07ZM301.69,68.17v55.68L238.86,212l-56.35-61.27,13.18-18.83q-18,.76-24.33.77H165.9L106.57,68.17ZM113.08,132.7h-9.55V122.31ZM95.34,332.79v-57.5l64.34-91.92,56.12,61-16.45,23.08,12.39-.26q3.73-.25,6.78-.26h18l60.54,65.83Z" transform="translate(-0.9 -0.48)"/><path class="edca8084-f2f4-41fd-b084-1e349e303e5e" d="M171.36,132.7q6.31,0,24.33-.77l-13.18,18.83L238.86,212l62.83-88.18V68.17H106.57L165.9,132.7Z" transform="translate(-0.9 -0.48)"/><polygon class="edca8084-f2f4-41fd-b084-1e349e303e5e" points="112.19 132.22 102.64 121.83 102.64 132.22 112.19 132.22"/><polygon class="edca8084-f2f4-41fd-b084-1e349e303e5e" points="304.54 283.95 304.54 266.48 288.48 266.48 304.54 283.95"/><path class="edca8084-f2f4-41fd-b084-1e349e303e5e" d="M218.52,267q-3,0-6.78.26l-12.39.26L215.8,244.4l-56.12-61L95.34,275.29v57.5H297.09L236.55,267Z" transform="translate(-0.9 -0.48)"/><path d="M396.9,200.48a195.86,195.86,0,0,1-92,166.15q-5.93,3.72-12.15,7a195,195,0,0,1-91.88,22.83c-108.24,0-196-87.75-196-196a195.89,195.89,0,0,1,92-166.15q5.94-3.72,12.16-7A195.06,195.06,0,0,1,200.89,4.48C309.14,4.48,396.9,92.24,396.9,200.48Z" transform="translate(-0.9 -0.48)"/><path class="edca8084-f2f4-41fd-b084-1e349e303e5e" d="M218.16,265.63c-2,0-4.2.09-6.64.26l-12.13.25,17.3-24.28,8.94-12.56,74.05-103.92V70.82H105.48v63.23H172q6.18,0,23.83-.75l-14,20L172.89,166,97.45,273.79v56.36h205.9V265.63Z" transform="translate(-0.9 -0.48)"/><rect x="185.11" y="-23.18" width="30.58" height="444.27" transform="translate(-82.67 187.67) rotate(-42.6)"/></svg>