<?xml version="1.0" encoding="utf-8"?>
<!-- Generator: Adobe Illustrator 24.1.2, SVG Export Plug-In . SVG Version: 6.00 Build 0)  -->
<svg version="1.1" id="图层_1" xmlns="http://www.w3.org/2000/svg" xmlns:xlink="http://www.w3.org/1999/xlink" x="0px" y="0px"
	 viewBox="0 0 150 150" style="enable-background:new 0 0 150 150;" xml:space="preserve">
<style type="text/css">
	.st0{fill:#FF0000;}
	.st1{fill:#0000FF;}
	.st2{fill:#FFFF00;}
</style>
<g>
	<path class="st0" d="M149,75.2c0,26.4-13.9,49.6-34.7,62.7c-1.5,0.9-3,1.8-4.6,2.6c-10.3,5.5-22.2,8.6-34.7,8.6
		c-40.9,0-74-33.1-74-74c0-26.4,13.9-49.6,34.7-62.7c1.5-0.9,3-1.8,4.6-2.7C50.7,4.4,62.5,1.2,75,1.2C115.9,1.2,149,34.4,149,75.2z"
		/>
	<g>
		<path class="st1" d="M81.5,99.8c-0.8,0-1.6,0-2.5,0.1l-4.6,0.1l6.5-9.2l3.4-4.7l28-39.2V26.3H39v23.9h25.1c1.6,0,4.6-0.1,9-0.3
			l-5.3,7.6l-3.4,4.8l-28.5,40.7v21.3h77.7V99.8H81.5z"/>
	</g>
	
		<rect x="-9.1" y="68.9" transform="matrix(0.6769 0.7361 -0.7361 0.6769 79.1318 -30.9431)" class="st2" width="167.7" height="11.5"/>
</g>
</svg>
