<?xml version="1.0" encoding="utf-8"?>
<!-- Generator: Adobe Illustrator 24.1.2, SVG Export Plug-In . SVG Version: 6.00 Build 0)  -->
<svg version="1.1" id="图层_1" xmlns="http://www.w3.org/2000/svg" xmlns:xlink="http://www.w3.org/1999/xlink" x="0px" y="0px"
	 viewBox="0 0 253 72" style="enable-background:new 0 0 253 72;" xml:space="preserve">
<style type="text/css">
	.st0{fill:#FF859A;}
	.st1{fill:#00A0FF;}
</style>
<path class="st0" d="M2.2,58.8V16.5h7.1c0,1.9-0.1,3.8-0.3,5.6c-0.2,1.8-0.3,3.6-0.5,5.4c1.2-3.8,2.9-6.6,5-8.6c2.2-2,4.8-3,7.8-3
	c2.6,0,4.9,0.7,6.7,2.2c1.8,1.5,3.2,3.6,4,6.4c1.6-3,3.4-5.1,5.3-6.5c1.9-1.4,4.1-2.1,6.6-2.1c3.6,0,6.3,1.3,8.3,3.9
	c2,2.6,3,6.2,3,10.9v28.2h-7.8V32.4c0-3.3-0.5-5.7-1.5-7.2c-1-1.5-2.5-2.3-4.7-2.3c-2.6,0-4.7,1.4-6.3,4.1c-1.6,2.7-2.4,6.4-2.4,11
	v20.7h-7.8V32.4c0-3.3-0.5-5.6-1.5-7.2S20.7,23,18.6,23c-2.6,0-4.7,1.4-6.2,4.1c-1.6,2.7-2.4,6.4-2.4,11v20.7H2.2z"/>
<path class="st0" d="M73.1,62c0.9,1.6,2,2.8,3.2,3.4c1.2,0.7,2.8,1,4.7,1c3.3,0,5.8-1,7.3-3.1c1.6-2.1,2.3-5.3,2.3-9.7
	c0-0.6,0-1.6-0.1-3c0-0.2,0-0.3,0-0.4c-1.1,2.4-2.6,4.2-4.5,5.5c-1.8,1.2-4,1.9-6.3,1.9c-4.4,0-8-1.9-10.8-5.7
	c-2.8-3.8-4.2-8.8-4.2-15c0-6.4,1.4-11.4,4.2-15.2c2.8-3.8,6.6-5.7,11.2-5.7c2.6,0,5,0.8,7,2.5c2.1,1.6,3.7,4,4.9,7.1
	c-0.4-1.6-0.6-3.2-0.8-4.7c-0.2-1.5-0.2-2.9-0.2-4.3h7.6v35.9c0,3.4-0.3,6.3-0.9,8.4c-0.6,2.2-1.6,4.1-3,5.7
	c-1.5,1.8-3.5,3.1-5.8,4.1c-2.4,1-5,1.5-7.8,1.5c-4,0-7.2-0.7-9.8-2c-2.5-1.3-4.4-3.3-5.4-5.9L73.1,62z M81.8,51
	c2.8,0,5-1.3,6.7-3.8c1.7-2.5,2.5-6,2.5-10.3c0-4.3-0.8-7.7-2.5-10.2s-3.8-3.8-6.6-3.8c-2.8,0-5.1,1.3-6.7,3.8
	c-1.7,2.5-2.5,5.9-2.5,10.2c0,4.3,0.8,7.7,2.5,10.3C76.8,49.8,79,51,81.8,51z"/>
<path class="st1" d="M110.2,58.8V2.1h7.8v56.7H110.2z"/>
<path class="st1" d="M139.7,7.3c0,1.5-0.6,2.8-1.7,3.7c-1.1,1-2.6,1.4-4.4,1.4c-1.8,0-3.2-0.5-4.3-1.4c-1.1-0.9-1.7-2.2-1.7-3.7
	s0.5-2.8,1.6-3.7c1.1-0.9,2.5-1.4,4.3-1.4c1.8,0,3.3,0.5,4.4,1.4C139.1,4.5,139.7,5.7,139.7,7.3z M129.7,58.8v-41h7.8v41H129.7z"/>
<path class="st1" d="M155.4,62c0.9,1.6,2,2.8,3.2,3.4c1.2,0.7,2.8,1,4.7,1c3.3,0,5.8-1,7.3-3.1s2.3-5.3,2.3-9.7c0-0.6,0-1.6-0.1-3
	c0-0.2,0-0.3,0-0.4c-1.1,2.4-2.6,4.2-4.5,5.5c-1.8,1.2-4,1.9-6.3,1.9c-4.4,0-8-1.9-10.8-5.7c-2.8-3.8-4.2-8.8-4.2-15
	c0-6.4,1.4-11.4,4.2-15.2c2.8-3.8,6.6-5.7,11.2-5.7c2.6,0,5,0.8,7,2.5c2.1,1.6,3.7,4,4.9,7.1c-0.4-1.6-0.6-3.2-0.8-4.7
	c-0.2-1.5-0.2-2.9-0.2-4.3h7.6v35.9c0,3.4-0.3,6.3-0.9,8.4s-1.6,4.1-3,5.7c-1.5,1.8-3.5,3.1-5.8,4.1s-5,1.5-7.8,1.5
	c-4,0-7.2-0.7-9.8-2c-2.5-1.3-4.4-3.3-5.4-5.9L155.4,62z M164.2,51c2.8,0,5-1.3,6.7-3.8s2.5-6,2.5-10.3c0-4.3-0.8-7.7-2.5-10.2
	s-3.8-3.8-6.6-3.8c-2.8,0-5.1,1.3-6.7,3.8c-1.7,2.5-2.5,5.9-2.5,10.2c0,4.3,0.8,7.7,2.5,10.3S161.4,51,164.2,51z"/>
<path class="st1" d="M216.6,58.8V32.4c0-3.3-0.5-5.7-1.5-7.2c-1-1.5-2.6-2.3-4.8-2.3c-2.9,0-5.2,1.4-7,4.1s-2.6,6.4-2.6,11.1v20.7
	h-7.8V2.1h7.8v14.3c0,1.1-0.1,2.6-0.2,4.3s-0.4,3.6-0.6,5.8c1.2-3.4,2.8-6,5-7.9c2.2-1.8,4.8-2.7,7.8-2.7c3.8,0,6.7,1.3,8.8,3.8
	c2,2.6,3.1,6.2,3.1,10.9v28.2H216.6z"/>
<path class="st1" d="M245.7,3v13.5h7.8v6h-7.8v36.4h-7.8V22.4H230v-6h7.8V3H245.7z"/>
</svg>
