<?xml version="1.0" encoding="utf-8"?>
<!-- Generator: Adobe Illustrator 16.0.0, SVG Export Plug-In . SVG Version: 6.00 Build 0)  -->
<!DOCTYPE svg PUBLIC "-//W3C//DTD SVG 1.1//EN" "http://www.w3.org/Graphics/SVG/1.1/DTD/svg11.dtd">
<svg version="1.1" id="图层_1" xmlns="http://www.w3.org/2000/svg" xmlns:xlink="http://www.w3.org/1999/xlink" x="0px" y="0px"
	 width="200px" height="200px" viewBox="0 0 200 200" enable-background="new 0 0 200 200" xml:space="preserve">
<path fill="#FFFFFF" d="M1,201V1h200v200H1z M137.584,57.333l-1.918,0.25l-1.832,0.333l-1.75,0.5L130.416,59l-1.666,0.583
	l-1.584,0.75l-1.5,0.833l-1.416,0.917l-1.416,1l-1.334,1.083l-1.25,1.167l-1.166,1.25L118,67.917l-1.084,1.417L116,70.75
	l-0.916,1.583l-0.834,1.583l-0.75,1.75l-0.666-1.833L112,72.083l-0.834-1.667l-1-1.583l-1.082-1.417l-1.168-1.333l-1.25-1.25
	l-1.25-1.167L104,62.583l-1.416-0.917L101,60.75L99.5,60l-1.667-0.667l-1.667-0.583l-1.667-0.5l-1.75-0.417L90.917,57.5
	l-1.833-0.167l-1.833-0.167h-3.583l-1.75,0.167L80.25,57.5l-1.667,0.25L77,58.167l-1.5,0.417l-1.5,0.5l-1.5,0.583l-1.333,0.667
	L69.75,61l-1.25,0.833l-1.25,0.833l-1.167,0.917l-1.167,1l-1.083,1.083l-1,1.083l-1,1.167l-0.917,1.25L60.083,70.5l-0.75,1.333
	V58.917h-36.25v18.5H34.5v48.833H23.083v18.834h52.75V126.25h-16.5V94.5l0.083-1.75l0.25-1.667l0.25-1.583L60.25,88l0.417-1.5
	l0.5-1.333l0.583-1.333l0.667-1.167l0.75-1.167l0.917-1L65,79.583l1-0.833L67.167,78l1.25-0.667l1.25-0.5l1.417-0.417l1.583-0.333
	l1.583-0.167L76,75.833h1.417L78.75,76l1.333,0.25l1.167,0.333L82.417,77l1.083,0.5l1,0.583l0.917,0.75l0.833,0.833l0.833,0.917
	l0.667,1l0.667,1.167l0.5,1.333l0.5,1.333L89.833,87l0.333,1.583l0.25,1.75l0.25,1.917l0.083,2.083v50.75h35.834V126.25h-11.418v-30
	l0.084-1.75l0.084-1.75l0.166-1.667l0.334-1.583l0.332-1.5l0.418-1.5l0.5-1.333l0.582-1.333l0.668-1.167l0.75-1.167l0.832-1l1-0.917
	l1-0.833l1.168-0.75l1.166-0.667l1.334-0.5L127,76.417l1.584-0.333l1.582-0.167l1.75-0.083h1.418L134.666,76L136,76.25l1.166,0.333
	L138.334,77l1.082,0.5l1,0.583l0.918,0.75l0.832,0.833l0.75,0.917l0.75,1l0.668,1.167l0.5,1.333l0.5,1.333L145.75,87l0.334,1.583
	l0.25,1.75l0.25,1.917l0.082,2.083v50.75H182.5V126.25h-11.416V86.917l-0.084-3l-0.334-2.75l-0.5-2.667L169.5,76l-0.834-2.333
	l-1-2.167l-1.166-2l-1.334-1.917l-1.5-1.667l-1.5-1.583L160.416,63l-1.75-1.25l-1.916-1.083l-2-1l-2.084-0.75l-2.082-0.667
	l-2.25-0.5l-2.168-0.333l-2.332-0.25H139.5L137.584,57.333L137.584,57.333z"/>
</svg>
