<svg id="a6c9cbc6-e4e3-4b0a-acc6-1b3eaa775319" data-name="图层 1" xmlns="http://www.w3.org/2000/svg" viewBox="0 0 323.51 323.51"><defs><style>.b8db7be5-c8d9-46d1-81a5-8eda56967759{fill:#1b1464;stroke:#29abe2;stroke-miterlimit:10;stroke-width:14.47px;}.be55f374-2133-4f13-b543-bb728ec57b68{fill:#29abe2;}</style></defs><rect class="b8db7be5-c8d9-46d1-81a5-8eda56967759" x="7.24" y="7.24" width="309.03" height="309.03"/><path class="be55f374-2133-4f13-b543-bb728ec57b68" d="M86,181.33v61.38H64.78V78.5h46.64q26.61,0,41.3,12.82T167.4,128q0,24.17-17.18,39.17t-42.93,14.15Zm0-84.18v65.52h19.61q19.41,0,29.47-8.74t10.08-25.08q0-31.69-37.53-31.7Z" transform="translate(1 -0.23)"/><path class="be55f374-2133-4f13-b543-bb728ec57b68" d="M177.53,217.38q15.69,11.34,33.82,11.34,24.28,0,24.28-15.9a13.94,13.94,0,0,0-5.3-11.19q-5.31-4.4-21.52-10.44-19.51-7.84-25.34-15.53t-5.83-18.61q0-15.59,13.2-25t32.49-9.39a73.36,73.36,0,0,1,27.78,5.2v20a53.74,53.74,0,0,0-29.79-8.49q-10,0-16.22,4.35t-6.26,11.45q0,7,4.51,10.92t20,10.07q19.62,7.32,26.51,15.16t6.89,19.4q0,16.13-13.2,25.39t-34.19,9.28q-18.24,0-31.81-6.89Z" transform="translate(1 -0.23)"/></svg>