<?xml version="1.0" standalone="no"?><!DOCTYPE svg PUBLIC "-//W3C//DTD SVG 1.1//EN" "http://www.w3.org/Graphics/SVG/1.1/DTD/svg11.dtd"><svg t="1632124333385" class="icon" viewBox="0 0 1024 1024" version="1.1" xmlns="http://www.w3.org/2000/svg" p-id="2194" id="mx_n_1632124333386" xmlns:xlink="http://www.w3.org/1999/xlink" width="200" height="200"><defs><style type="text/css"></style></defs><path d="M479.232 583.125333L293.12 522.752a14.634667 14.634667 0 0 1-9.429333-12.842667l-1.792-143.018666a14.122667 14.122667 0 0 1 9.216-12.8l438.570666-140.288c5.205333-1.664 9.386667 1.365333 9.386667 6.826666v142.976a14.506667 14.506667 0 0 1-9.344 12.928l-180.949333 60.330667 183.936 57.429333c5.205333 1.621333 9.386667 7.338667 9.386666 12.757334v140.970666a14.634667 14.634667 0 0 1-9.258666 12.970667L293.12 810.154667c-5.12 1.792-9.301333-1.237333-9.344-6.613334l-0.896-147.157333a14.208 14.208 0 0 1 9.258667-12.8l187.093333-60.458667z" fill="#FFB74D" p-id="2195"></path></svg>