<svg id="e0fad0c2-12d0-46d7-a1c7-86ee26b9d2c5" data-name="图层 1" xmlns="http://www.w3.org/2000/svg" viewBox="0 0 1163.53 540.17"><defs><style>.fabbe23b-0d73-4621-b923-f3e69a8bd3b8{fill:#fff100;}.e512f936-c268-4b69-a9f7-6f42b369f835{fill:#00a0e9;}.fa543fbd-6027-4ded-9b14-2b3d069fe7ef{fill:#094;}.af4d8876-ed36-4836-b794-0330f45e06b3{fill:#e4007f;}.e11f9a29-e74d-41d7-9d45-7e55b2c94df3{fill:#e60012;}.a3ebb179-ac16-477d-abd5-757bacc59e0e{fill:#1d2088;}.f1f69427-208a-48ce-9e86-fcce9f0372ff{fill:lime;}.f37d2a94-9910-4dd4-a5d8-a0c4210ff613{fill:blue;}.f21d083d-78b9-4eb9-ba69-667ac20011ef{fill:aqua;}.f620722c-8013-4b23-b066-00803535dc77{fill:red;}.ac72081a-fb1a-4f48-b742-b5d0809fba63{fill:#ff0;}.aa8f9def-b253-4265-9e6a-64c419ce613a{fill:#f0f;}.b1d57d61-361a-407c-8a56-47c8e3e1fc62,.b9385843-99d4-46a4-9f05-b5a025621df6{fill:#fff;}.b9385843-99d4-46a4-9f05-b5a025621df6{font-size:48px;font-family:YouYuan;}</style></defs><path class="fabbe23b-0d73-4621-b923-f3e69a8bd3b8" d="M861,283a151.44,151.44,0,0,1-75.63-127.26c-2.45,1.25-4.89,2.56-7.3,3.95a151.5,151.5,0,1,0,151.5,262.4c1.09-.62,2.16-1.26,3.23-1.91A151.52,151.52,0,0,1,861,283Z" transform="translate(-0.29 -0.29)"/><path class="e512f936-c268-4b69-a9f7-6f42b369f835" d="M1088.08,160A151.5,151.5,0,0,1,1005.29,287a151.48,151.48,0,0,1-72.5,133.21c1.24.76,2.49,1.51,3.76,2.24A151.5,151.5,0,0,0,1088.08,160Z" transform="translate(-0.29 -0.29)"/><path class="fa543fbd-6027-4ded-9b14-2b3d069fe7ef" d="M1005.29,287A151.67,151.67,0,0,1,861,283a151.52,151.52,0,0,0,71.8,137.18A151.48,151.48,0,0,0,1005.29,287Z" transform="translate(-0.29 -0.29)"/><path class="af4d8876-ed36-4836-b794-0330f45e06b3" d="M933.33,161.88A151.48,151.48,0,0,1,1088.05,160l0,0q.23-4.1.23-8.23a151.5,151.5,0,0,0-303,0c0,1.31,0,2.62.05,3.93A151.52,151.52,0,0,1,933.33,161.88Z" transform="translate(-0.29 -0.29)"/><path class="e11f9a29-e74d-41d7-9d45-7e55b2c94df3" d="M861,283a151.71,151.71,0,0,1,72.34-121.1,151.52,151.52,0,0,0-148-6.16A151.44,151.44,0,0,0,861,283Z" transform="translate(-0.29 -0.29)"/><path class="a3ebb179-ac16-477d-abd5-757bacc59e0e" d="M933.33,161.88a151.71,151.71,0,0,1,72,125.07A151.5,151.5,0,0,0,1088.08,160l0,0A151.48,151.48,0,0,0,933.33,161.88Z" transform="translate(-0.29 -0.29)"/><path d="M933.33,161.88A151.71,151.71,0,0,0,861,283a151.67,151.67,0,0,0,144.3,4,151.71,151.71,0,0,0-72-125.07Z" transform="translate(-0.29 -0.29)"/><path class="f1f69427-208a-48ce-9e86-fcce9f0372ff" d="M159,283A151.44,151.44,0,0,1,83.36,155.72c-2.45,1.25-4.89,2.56-7.3,3.95a151.5,151.5,0,1,0,151.5,262.4c1.09-.62,2.16-1.26,3.23-1.91A151.52,151.52,0,0,1,159,283Z" transform="translate(-0.29 -0.29)"/><path class="f37d2a94-9910-4dd4-a5d8-a0c4210ff613" d="M386.08,160A151.5,151.5,0,0,1,303.29,287a151.48,151.48,0,0,1-72.5,133.21c1.24.76,2.49,1.51,3.76,2.24A151.5,151.5,0,0,0,386.08,160Z" transform="translate(-0.29 -0.29)"/><path class="f21d083d-78b9-4eb9-ba69-667ac20011ef" d="M303.29,287A151.67,151.67,0,0,1,159,283a151.52,151.52,0,0,0,71.8,137.18A151.48,151.48,0,0,0,303.29,287Z" transform="translate(-0.29 -0.29)"/><path class="f620722c-8013-4b23-b066-00803535dc77" d="M231.33,161.88A151.48,151.48,0,0,1,386.05,160l0,0q.23-4.1.23-8.23a151.5,151.5,0,0,0-303,0c0,1.31,0,2.62,0,3.93A151.52,151.52,0,0,1,231.33,161.88Z" transform="translate(-0.29 -0.29)"/><path class="ac72081a-fb1a-4f48-b742-b5d0809fba63" d="M159,283a151.71,151.71,0,0,1,72.34-121.1,151.52,151.52,0,0,0-148-6.16A151.44,151.44,0,0,0,159,283Z" transform="translate(-0.29 -0.29)"/><path class="aa8f9def-b253-4265-9e6a-64c419ce613a" d="M231.33,161.88a151.71,151.71,0,0,1,72,125.07A151.5,151.5,0,0,0,386.08,160l0,0A151.48,151.48,0,0,0,231.33,161.88Z" transform="translate(-0.29 -0.29)"/><path class="b1d57d61-361a-407c-8a56-47c8e3e1fc62" d="M231.33,161.88A151.71,151.71,0,0,0,159,283a151.67,151.67,0,0,0,144.3,4,151.71,151.71,0,0,0-72-125.07Z" transform="translate(-0.29 -0.29)"/><text class="b9385843-99d4-46a4-9f05-b5a025621df6" transform="translate(110.77 529.29)">光学三原色</text><text class="b9385843-99d4-46a4-9f05-b5a025621df6" transform="translate(812.77 529.29)">颜料三原色</text></svg>