<?xml version="1.0" encoding="utf-8"?>
<!-- Generator: Adobe Illustrator 24.1.2, SVG Export Plug-In . SVG Version: 6.00 Build 0)  -->
<svg version="1.1" id="图层_1" xmlns="http://www.w3.org/2000/svg" xmlns:xlink="http://www.w3.org/1999/xlink" x="0px" y="0px"
	 viewBox="0 0 386 199" style="enable-background:new 0 0 386 199;" xml:space="preserve">
<style type="text/css">
	.st0{fill:#FFF100;}
	.st1{fill:#00A0E9;}
	.st2{fill:#009944;}
	.st3{fill:#E4007F;}
	.st4{fill:#E60012;}
	.st5{fill:#1D2088;}
	.st6{fill:#FFFFFF;}
	.st7{font-family:'YouYuan';}
	.st8{font-size:17.9433px;}
	.st9{fill:#00FF00;}
	.st10{fill:#0000FF;}
	.st11{fill:#00FFFF;}
	.st12{fill:#FF0000;}
	.st13{fill:#FFFF00;}
	.st14{fill:#FF00FF;}
</style>
<g>
	<path class="st0" d="M269.6,109.2c-16.5-9.6-27.8-27.2-28.3-47.6c-0.9,0.5-1.8,1-2.7,1.5c-27.1,15.6-36.4,50.3-20.7,77.4
		c15.6,27.1,50.3,36.4,77.4,20.7c0.4-0.2,0.8-0.5,1.2-0.7C278.3,149.3,268.5,129.3,269.6,109.2z"/>
	<path class="st1" d="M354.5,63.3c-1.1,20.8-13.4,38.5-30.9,47.5c0.5,19.6-9.3,38.9-27.1,49.8c0.5,0.3,0.9,0.6,1.4,0.8
		c27.1,15.6,61.7,6.4,77.4-20.7C390.9,113.6,381.6,78.9,354.5,63.3z"/>
	<path class="st2" d="M323.6,110.7c-7.7,3.9-16.4,6.1-25.6,6.1c-10.3,0-20-2.8-28.3-7.6c-1.1,20.1,8.6,40.1,26.8,51.3
		C314.3,149.6,324.1,130.4,323.6,110.7z"/>
	<path class="st3" d="M296.7,64c17.1-10.4,39.3-11.4,57.8-0.7c0,0,0,0,0,0c0.1-1,0.1-2,0.1-3.1c0-31.3-25.4-56.6-56.6-56.6
		s-56.6,25.4-56.6,56.6c0,0.5,0,1,0,1.5C259.4,52.5,280.3,53.9,296.7,64z"/>
	<path class="st4" d="M269.6,109.2c0.5-8.6,2.9-17.3,7.5-25.2c4.9-8.5,11.7-15.3,19.5-20c-16.3-10-37.2-11.5-55.3-2.3
		C241.9,82,253.1,99.7,269.6,109.2z"/>
	<path class="st5" d="M296.7,64c7.7,4.8,14.5,11.5,19.3,19.9c4.9,8.5,7.4,17.7,7.6,26.9c17.6-8.9,29.8-26.7,30.9-47.5c0,0,0,0,0,0
		C335.9,52.5,313.8,53.5,296.7,64z"/>
	<path d="M296.7,64c-7.8,4.8-14.6,11.5-19.5,20c-4.6,8-7.1,16.6-7.5,25.2c8.3,4.8,18,7.6,28.3,7.6c9.2,0,17.9-2.2,25.6-6.1
		c-0.2-9.1-2.7-18.4-7.6-26.9C311.1,75.4,304.4,68.7,296.7,64z"/>
</g>
<text transform="matrix(1 0 0 1 43.7891 193.1689)" class="st6 st7 st8">光学三原色</text>
<text transform="matrix(1 0 0 1 251.6992 193.1689)" class="st6 st7 st8">颜料三原色</text>
<g>
	<path class="st9" d="M62.1,109.2C45.6,99.7,34.4,82,33.9,61.7c-0.9,0.5-1.8,1-2.7,1.5C4.1,78.8-5.2,113.4,10.4,140.5
		c15.6,27.1,50.3,36.4,77.4,20.7c0.4-0.2,0.8-0.5,1.2-0.7C70.8,149.3,61.1,129.3,62.1,109.2z"/>
	<path class="st10" d="M147,63.3c-1.1,20.8-13.4,38.5-30.9,47.5c0.5,19.6-9.3,38.9-27.1,49.8c0.5,0.3,0.9,0.6,1.4,0.8
		c27.1,15.6,61.7,6.4,77.4-20.7C183.4,113.6,174.1,78.9,147,63.3z"/>
	<path class="st11" d="M116.1,110.7c-7.7,3.9-16.4,6.1-25.6,6.1c-10.3,0-20-2.8-28.3-7.6c-1.1,20.1,8.6,40.1,26.8,51.3
		C106.8,149.6,116.6,130.4,116.1,110.7z"/>
	<path class="st12" d="M89.2,64c17.1-10.4,39.3-11.4,57.8-0.7c0,0,0,0,0,0c0.1-1,0.1-2,0.1-3.1c0-31.3-25.4-56.6-56.6-56.6
		S33.9,28.9,33.9,60.2c0,0.5,0,1,0,1.5C51.9,52.5,72.9,53.9,89.2,64z"/>
	<path class="st13" d="M62.1,109.2c0.5-8.6,2.9-17.3,7.5-25.2c4.9-8.5,11.7-15.3,19.5-20c-16.3-10-37.2-11.5-55.3-2.3
		C34.4,82,45.6,99.7,62.1,109.2z"/>
	<path class="st14" d="M89.2,64c7.7,4.8,14.5,11.5,19.3,19.9c4.9,8.5,7.4,17.7,7.6,26.9c17.6-8.9,29.8-26.7,30.9-47.5c0,0,0,0,0,0
		C128.4,52.5,106.3,53.5,89.2,64z"/>
	<path class="st6" d="M89.2,64c-7.8,4.8-14.6,11.5-19.5,20c-4.6,8-7.1,16.6-7.5,25.2c8.3,4.8,18,7.6,28.3,7.6
		c9.2,0,17.9-2.2,25.6-6.1c-0.2-9.1-2.7-18.4-7.6-26.9C103.6,75.4,96.9,68.7,89.2,64z"/>
</g>
</svg>
