<?xml version="1.0" encoding="utf-8"?>
<!-- Generator: Adobe Illustrator 16.0.0, SVG Export Plug-In . SVG Version: 6.00 Build 0)  -->
<!DOCTYPE svg PUBLIC "-//W3C//DTD SVG 1.1//EN" "http://www.w3.org/Graphics/SVG/1.1/DTD/svg11.dtd">
<svg version="1.1" id="图层_1" xmlns="http://www.w3.org/2000/svg" xmlns:xlink="http://www.w3.org/1999/xlink" x="0px" y="0px"
	 width="200px" height="200px" viewBox="0 0 200 200" enable-background="new 0 0 200 200" xml:space="preserve">
<path fill="#FFFFFF" d="M100,48.578c17.13,0,31.019,13.888,31.019,31.019S117.131,110.614,100,110.614
	c-17.131,0-31.019-13.887-31.019-31.018S82.87,48.578,100,48.578z M168.047,79.61c-0.002-37.581-30.467-68.045-68.049-68.043
	c-37.581,0.001-68.045,30.468-68.044,68.049c0,13.201,3.841,26.115,11.053,37.173l50.903,67.869c1.678,3.368,5.77,4.737,9.138,3.058
	c1.326-0.658,2.398-1.733,3.059-3.058l50.996-67.869C163.973,106.076,168.047,93.348,168.047,79.61L168.047,79.61z"/>
</svg>
