<?xml version="1.0" encoding="utf-8"?>
<!-- Generator: Adobe Illustrator 16.0.0, SVG Export Plug-In . SVG Version: 6.00 Build 0)  -->
<!DOCTYPE svg PUBLIC "-//W3C//DTD SVG 1.1//EN" "http://www.w3.org/Graphics/SVG/1.1/DTD/svg11.dtd">
<svg version="1.1" id="图层_1" xmlns="http://www.w3.org/2000/svg" xmlns:xlink="http://www.w3.org/1999/xlink" x="0px" y="0px"
	 width="200px" height="200px" viewBox="0 0 200 200" enable-background="new 0 0 200 200" xml:space="preserve">
<path fill="#FFFFFF" enable-background="new    " d="M133.09,70.238c2.15,0,4.273,0.158,6.375,0.387
	c-5.725-26.384-34.236-45.994-66.778-45.994c-36.386,0-66.19,24.542-66.19,55.705c0,17.984,9.919,32.755,26.487,44.21l-6.62,19.708
	L49.5,132.77c8.284,1.621,14.923,3.289,23.188,3.289c2.075,0,4.131-0.103,6.178-0.264c-1.295-4.376-2.047-8.963-2.047-13.72
	C76.817,93.46,101.649,70.238,133.09,70.238z M97.507,52.478c4.985,0,8.282,3.249,8.282,8.178c0,4.908-3.297,8.198-8.282,8.198
	c-4.965,0-9.938-3.289-9.938-8.198C87.568,55.726,92.542,52.478,97.507,52.478z M51.186,68.853c-4.965,0-9.97-3.289-9.97-8.197
	c0-4.929,5.006-8.178,9.97-8.178c4.959,0,8.263,3.249,8.263,8.178C59.448,65.563,56.145,68.853,51.186,68.853z M193.504,121.287
	c0-26.187-26.48-47.528-56.221-47.528c-31.492,0-56.292,21.344-56.292,47.528c0,26.227,24.8,47.523,56.292,47.523
	c6.588,0,13.236-1.637,19.855-3.278l18.156,9.837l-4.977-16.364C183.605,149.137,193.504,136.059,193.504,121.287z M119.027,113.091
	c-3.293,0-6.619-3.241-6.619-6.556c0-3.264,3.322-6.547,6.619-6.547c5.006,0,8.285,3.284,8.285,6.547
	C127.313,109.848,124.033,113.091,119.027,113.091z M155.434,113.091c-3.268,0-6.572-3.241-6.572-6.556
	c0-3.264,3.305-6.547,6.572-6.547c4.967,0,8.285,3.284,8.285,6.547C163.719,109.848,160.398,113.091,155.434,113.091z"/>
</svg>
