<?xml version="1.0" encoding="utf-8"?>
<!-- Generator: Adobe Illustrator 16.0.0, SVG Export Plug-In . SVG Version: 6.00 Build 0)  -->
<!DOCTYPE svg PUBLIC "-//W3C//DTD SVG 1.1//EN" "http://www.w3.org/Graphics/SVG/1.1/DTD/svg11.dtd">
<svg version="1.1" id="图层_1" xmlns="http://www.w3.org/2000/svg" xmlns:xlink="http://www.w3.org/1999/xlink" x="0px" y="0px"
	 width="200px" height="200px" viewBox="-10 -25 200 200" enable-background="new -10 -25 200 200" xml:space="preserve">
<path fill="#FF4E00" d="M123.09,45.238c2.151,0,4.273,0.158,6.375,0.387C123.74,19.241,95.229-0.369,62.686-0.369
	c-36.385,0-66.19,24.542-66.19,55.705c0,17.984,9.919,32.755,26.487,44.21l-6.62,19.708l23.136-11.485
	c8.284,1.621,14.922,3.289,23.187,3.289c2.076,0,4.131-0.102,6.178-0.263c-1.295-4.376-2.046-8.963-2.046-13.72
	C66.818,68.46,91.65,45.238,123.09,45.238z M87.508,27.478c4.984,0,8.282,3.249,8.282,8.178c0,4.908-3.298,8.198-8.282,8.198
	c-4.965,0-9.938-3.289-9.938-8.198C77.569,30.726,82.543,27.478,87.508,27.478z M41.186,43.853c-4.965,0-9.97-3.289-9.97-8.197
	c0-4.929,5.006-8.178,9.97-8.178c4.958,0,8.263,3.249,8.263,8.178C49.448,40.563,46.144,43.853,41.186,43.853z M183.504,96.287
	c0-26.187-26.481-47.53-56.22-47.53c-31.492,0-56.293,21.345-56.293,47.53c0,26.226,24.801,47.523,56.293,47.523
	c6.587,0,13.236-1.636,19.855-3.278l18.157,9.837l-4.978-16.364C173.606,124.137,183.504,111.058,183.504,96.287z M109.028,88.091
	c-3.293,0-6.619-3.242-6.619-6.556c0-3.263,3.322-6.547,6.619-6.547c5.006,0,8.285,3.284,8.285,6.547
	C117.313,84.847,114.034,88.091,109.028,88.091z M145.434,88.091c-3.268,0-6.573-3.242-6.573-6.556c0-3.263,3.306-6.547,6.573-6.547
	c4.967,0,8.285,3.284,8.285,6.547C153.719,84.847,150.399,88.091,145.434,88.091z"/>
</svg>
