<svg id="e525bad7-de0a-4545-9d0c-214b7cb891fb" data-name="图层 1" xmlns="http://www.w3.org/2000/svg" viewBox="0 0 532 532"><defs><style>.a2722911-3032-4703-9ac8-210a5bd88d31{fill:lime;}.af9bf543-960a-46be-9467-b94fb20e0560,.b7d51957-5f0d-463a-88c8-04c05806db07{fill:#fff;}.af9bf543-960a-46be-9467-b94fb20e0560{stroke:lime;stroke-miterlimit:10;stroke-width:6px;}</style></defs><rect class="a2722911-3032-4703-9ac8-210a5bd88d31" width="532" height="532" rx="100.01"/><path class="b7d51957-5f0d-463a-88c8-04c05806db07" d="M243.86,113.06c-78.15,0-141.5,55-141.5,122.86,0,33,15,63,39.39,85.05l-11.24,53,47.56-29.3a158.28,158.28,0,0,0,65.79,14.07c78.15,0,141.5-55,141.5-122.86S322,113.06,243.86,113.06Z" transform="translate(-0.14 -0.46)"/><ellipse class="a2722911-3032-4703-9ac8-210a5bd88d31" cx="192.01" cy="195" rx="18.53" ry="20.24"/><ellipse class="a2722911-3032-4703-9ac8-210a5bd88d31" cx="295.44" cy="195" rx="18.53" ry="20.24"/><path class="af9bf543-960a-46be-9467-b94fb20e0560" d="M330.86,237.21c54.71,0,99.05,38.5,99.05,86,0,23.1-10.49,44.08-27.57,59.53l7.87,37.13-33.29-20.51a110.9,110.9,0,0,1-46.06,9.85c-54.7,0-99.05-38.51-99.05-86S276.16,237.21,330.86,237.21Z" transform="translate(-0.14 -0.46)"/><ellipse class="a2722911-3032-4703-9ac8-210a5bd88d31" cx="366.93" cy="294.42" rx="12.97" ry="14.17"/><ellipse class="a2722911-3032-4703-9ac8-210a5bd88d31" cx="294.52" cy="294.42" rx="12.97" ry="14.17"/></svg>