<?xml version="1.0" encoding="utf-8"?>
<!-- Generator: Adobe Illustrator 16.0.0, SVG Export Plug-In . SVG Version: 6.00 Build 0)  -->
<!DOCTYPE svg PUBLIC "-//W3C//DTD SVG 1.1//EN" "http://www.w3.org/Graphics/SVG/1.1/DTD/svg11.dtd">
<svg version="1.1" id="图层_1" xmlns="http://www.w3.org/2000/svg" xmlns:xlink="http://www.w3.org/1999/xlink" x="0px" y="0px"
	 width="200px" height="200px" viewBox="0 0 200 200" enable-background="new 0 0 200 200" xml:space="preserve">
<path fill="#FFFFFF" d="M157.945,163.43c0,3.15-0.629,6.082-1.89,8.791c-1.262,2.711-2.994,5.102-5.2,7.184
	c-2.207,2.076-4.789,3.717-7.751,4.914c-2.962,1.195-6.142,1.795-9.547,1.795H66.442c-3.402,0-6.584-0.6-9.546-1.795
	c-2.962-1.197-5.546-2.838-7.752-4.914c-2.205-2.082-3.938-4.473-5.198-7.184c-1.262-2.709-1.892-5.641-1.892-8.791V36.763
	c0-3.151,0.63-6.112,1.892-8.886c1.261-2.772,2.993-5.199,5.198-7.278c2.206-2.08,4.79-3.719,7.752-4.916s6.144-1.796,9.546-1.796
	h67.113c3.405,0,6.585,0.599,9.547,1.796s5.544,2.836,7.752,4.916c2.204,2.079,3.938,4.505,5.196,7.278
	c1.261,2.774,1.892,5.735,1.892,8.886V163.43H157.945L157.945,163.43z M142.633,45.839H57.18v108.327h85.453V45.839L142.633,45.839z
	 M99.905,159.459c-2.647,0-4.946,0.947-6.901,2.838c-1.954,1.891-2.93,4.221-2.93,6.994c0,2.646,0.977,4.945,2.93,6.9
	c1.954,1.957,4.254,2.932,6.901,2.932c2.772,0,5.104-0.979,6.994-2.932s2.836-4.254,2.836-6.9c0-2.775-0.945-5.104-2.836-6.994
	C105.01,160.406,102.678,159.459,99.905,159.459z M115.029,29.769c0-1.008-0.315-1.796-0.944-2.363
	c-0.63-0.567-1.323-0.851-2.079-0.851h-24.01c-0.63,0-1.292,0.283-1.985,0.851c-0.693,0.567-1.04,1.355-1.04,2.363
	c0,1.008,0.315,1.796,0.945,2.363c0.63,0.566,1.322,0.85,2.079,0.85h24.009c0.758,0,1.45-0.283,2.081-0.85
	C114.714,31.564,115.029,30.775,115.029,29.769z"/>
</svg>
