<?xml version="1.0" encoding="utf-8"?>
<!-- Generator: Adobe Illustrator 16.0.0, SVG Export Plug-In . SVG Version: 6.00 Build 0)  -->
<!DOCTYPE svg PUBLIC "-//W3C//DTD SVG 1.1//EN" "http://www.w3.org/Graphics/SVG/1.1/DTD/svg11.dtd">
<svg version="1.1" id="图层_1" xmlns="http://www.w3.org/2000/svg" xmlns:xlink="http://www.w3.org/1999/xlink" x="0px" y="0px"
	 width="200px" height="200px" viewBox="0 0 200 200" enable-background="new 0 0 200 200" xml:space="preserve">
<path fill="#FFFFFF" d="M96.729,189.459C45.518,189.459,4,147.941,4,96.73C4,45.519,45.518,4,96.729,4
	c51.212,0,92.729,41.518,92.729,92.729C189.458,147.939,147.941,189.459,96.729,189.459z M96.729,176.211
	c43.897,0,79.482-35.588,79.482-79.481c0-43.894-35.587-79.481-79.482-79.481c-43.894,0-79.48,35.588-79.48,79.481
	C17.249,140.625,52.835,176.211,96.729,176.211z M46.278,45.026c2.627-2.548,6.821-2.485,9.369,0.142
	c2.547,2.626,2.483,6.821-0.143,9.369l0,0C43.751,65.872,37.113,81.5,37.119,97.829c0,13.364,4.378,26.063,12.36,36.515
	c2.22,2.908,1.662,7.064-1.246,9.287c-2.908,2.223-7.065,1.66-9.285-1.246c-9.794-12.785-15.092-28.449-15.076-44.556
	C23.873,77.699,32.045,58.843,46.278,45.026z M98.625,23.872c3.657,0,6.623,2.966,6.623,6.623c0,3.66-2.966,6.625-6.623,6.625l0,0
	c-8.681-0.016-17.267,1.794-25.202,5.312c-3.324,1.527-7.257,0.07-8.784-3.254c-1.527-3.324-0.071-7.256,3.252-8.784
	c0.053-0.024,0.105-0.048,0.16-0.071C77.676,26.054,88.094,23.855,98.625,23.872z M164.904,174.27
	c-2.543-2.631-2.469-6.82,0.162-9.361c2.564-2.48,6.638-2.48,9.203,0l19.871,19.867c2.541,2.629,2.467,6.822-0.162,9.367
	c-2.567,2.479-6.64,2.479-9.205,0L164.904,174.27z"/>
</svg>
