<svg id="ebe5edc1-77ad-43f3-b06d-0b511c52260c" data-name="图层 1" xmlns="http://www.w3.org/2000/svg" viewBox="0 0 582.27 252.52"><defs><style>.e6352e1a-bf3f-4059-8406-fb8010528e92{fill:red;}.faa87411-8b6a-4efe-8a62-dc93717b2476{fill:blue;}.e34af053-7d80-4e2a-8269-de4fbd530174{fill:#fff;}</style></defs><path class="e6352e1a-bf3f-4059-8406-fb8010528e92" d="M41.66,252.11H13.27c-4.1,0-7-.92-8.78-2.75s-2.63-4.77-2.63-8.78V170.76q0-6.15,2.7-8.84c1.79-1.8,4.7-2.7,8.71-2.7h30.1a70.07,70.07,0,0,1,11.53.83,24.41,24.41,0,0,1,8.74,3.17,22.62,22.62,0,0,1,5.83,5,22,22,0,0,1,3.87,6.65,22.46,22.46,0,0,1,1.33,7.7q0,13.94-13.94,20.4Q79,208.78,79,225.63a25.5,25.5,0,0,1-4,14,23.92,23.92,0,0,1-10.77,9.22,38.25,38.25,0,0,1-9.76,2.5A98.68,98.68,0,0,1,41.66,252.11Zm-21-78.76v24H37.92A34.75,34.75,0,0,0,48.78,196,10.37,10.37,0,0,0,54.64,191a11.41,11.41,0,0,0,1.59-6q0-7-5-9.34T36,173.35Zm19.58,37.51H20.68V238H40.89Q60,238,60,224.23q0-7-4.95-10.2T40.26,210.86Z" transform="translate(-1.86 -1.18)"/><path class="e6352e1a-bf3f-4059-8406-fb8010528e92" d="M137.84,243.94a53.91,53.91,0,0,1-12.13,7.32,34,34,0,0,1-13.15,2.44,24.94,24.94,0,0,1-11.69-2.63,19.16,19.16,0,0,1-7.76-7.13,18.47,18.47,0,0,1-2.73-9.76,17.47,17.47,0,0,1,4.5-12.1,22.48,22.48,0,0,1,12.36-6.72c1.09-.25,3.82-.82,8.17-1.71s8.08-1.7,11.18-2.44,6.48-1.63,10.11-2.69q-.31-6.84-2.76-10t-10.1-3.2c-4.4,0-7.7.61-9.92,1.83a16.11,16.11,0,0,0-5.7,5.52q-2.39,3.68-3.36,4.84c-.66.79-2.06,1.18-4.21,1.18a7.39,7.39,0,0,1-5-1.87A6.08,6.08,0,0,1,93.49,202a14.61,14.61,0,0,1,3.23-8.87q3.23-4.31,10.07-7.09t17-2.79q11.4,0,17.93,2.69a16.72,16.72,0,0,1,9.22,8.52q2.69,5.84,2.69,15.46,0,6.09,0,10.33t-.1,9.44a34.63,34.63,0,0,0,1.62,10.17,32.12,32.12,0,0,1,1.62,6.81,6.38,6.38,0,0,1-2.51,4.85,8.38,8.38,0,0,1-5.67,2.19,7.66,7.66,0,0,1-5.26-2.51A36.73,36.73,0,0,1,137.84,243.94Zm-1.14-25a87.44,87.44,0,0,1-11.06,3q-7.24,1.54-10,2.28a13.64,13.64,0,0,0-5.32,2.85,7.31,7.31,0,0,0-2.54,5.92,8.81,8.81,0,0,0,3,6.69,11,11,0,0,0,7.79,2.76,20.3,20.3,0,0,0,9.48-2.25,15.13,15.13,0,0,0,6.37-5.8q2.34-3.93,2.34-12.93Z" transform="translate(-1.86 -1.18)"/><path class="e6352e1a-bf3f-4059-8406-fb8010528e92" d="M180,175.32a9.12,9.12,0,0,1-6.18-2.22,8.59,8.59,0,0,1,.06-12.32A8.81,8.81,0,0,1,180,158.4a9.07,9.07,0,0,1,6,2.15,7.7,7.7,0,0,1,2.6,6.28,7.91,7.91,0,0,1-2.53,6.24A8.77,8.77,0,0,1,180,175.32Zm8.55,17.87v50q0,5.19-2.47,7.86a8.21,8.21,0,0,1-6.27,2.66,7.8,7.8,0,0,1-6.18-2.73q-2.38-2.72-2.38-7.79V193.69q0-5.13,2.38-7.73a8,8,0,0,1,6.18-2.6,8.3,8.3,0,0,1,6.27,2.6A10,10,0,0,1,188.53,193.19Z" transform="translate(-1.86 -1.18)"/><path class="e6352e1a-bf3f-4059-8406-fb8010528e92" d="M476.45,163.92q4.67,0,6.71,2t2,7q0,4.95-2.09,7.14t-6.66,2.19H451.38c-.78,0-1.38.61-1.8,1.84a10.49,10.49,0,0,0-.63,3.36,1.31,1.31,0,0,0,1.46,1.5h20.11q6.51,0,8.6,1.8T481.21,201v35.57q0,7.39-2.33,9.72t-8.36,2.34H414.16c-4.61,0-7.54-.9-8.8-2.68s-1.9-4.91-1.9-9.38V201q0-6.79,2.24-9.42t8.46-2.63h11.08a3.44,3.44,0,0,0,1.79-.34,3,3,0,0,0,.93-1.75,11.65,11.65,0,0,0,.38-3c0-1.07-.71-1.6-2.13-1.6H407q-4.27,0-6.22-2.09t-1.94-7.29c0-3.47.63-5.83,1.9-7.1s3.35-1.89,6.26-1.89ZM460.9,211c1.17,0,1.86-.21,2.09-.64a5.74,5.74,0,0,0,.34-2.43,3.56,3.56,0,0,0-.48-2.28,2.87,2.87,0,0,0-2-.48H424.07a3,3,0,0,0-2,.48,3.45,3.45,0,0,0-.54,2.38,3.9,3.9,0,0,0,.49,2.43,2.77,2.77,0,0,0,2,.54Zm-.19,21.28a2.68,2.68,0,0,0,2.14-.63,4.19,4.19,0,0,0,.48-2.38,5,5,0,0,0-.39-2.38c-.26-.42-1-.64-2.23-.64H424.26c-1.29,0-2.07.22-2.33.64a8.28,8.28,0,0,0-.05,4.86c.23.35,1,.53,2.38.53Z" transform="translate(-1.86 -1.18)"/><path class="e6352e1a-bf3f-4059-8406-fb8010528e92" d="M576.17,167.61c2.72,0,4.69.6,5.93,1.8s1.84,3.13,1.84,5.78-.39,4.55-1.16,5.69-2.43,1.7-5,1.7h-6c-.52,0-.84.13-1,.39a3.16,3.16,0,0,0-.19,1.31c0,.61.09,1,.29,1.16a1.66,1.66,0,0,0,1.07.25h5.25a4.18,4.18,0,0,1,3.79,1.65c.71,1.1,1.07,2.92,1.07,5.44s-.36,4.34-1.07,5.44a4.16,4.16,0,0,1-3.79,1.66H571.5c-.52,0-.86.11-1,.34a2.19,2.19,0,0,0-.24,1.21v4q0,7.77-9.14,7.77H533.31q-9,0-9-7.77V201c0-.51-.1-.84-.29-1a3,3,0,0,0-1.36-.19h-3.89c-1.82,0-3.08-.55-3.79-1.66s-1.07-2.91-1.07-5.44.36-4.34,1.07-5.44,2-1.65,3.79-1.65h4.18c.64,0,1.05-.1,1.21-.29a2.08,2.08,0,0,0,.25-1.22,2.33,2.33,0,0,0-.25-1.26c-.16-.23-.5-.34-1-.34h-4.47q-4.47,0-6.22,2.28c-1.16,1.52-1.75,4.1-1.75,7.73s.6,6.28,1.8,8,3.13,2.52,5.78,2.52a2.87,2.87,0,0,1,1.85.39,4.31,4.31,0,0,1,.39,2.43,13.8,13.8,0,0,1-.24,3,3.78,3.78,0,0,1-1,1.74,10.49,10.49,0,0,0-3.2,7.83,13.93,13.93,0,0,0,2.33,8.11,5.88,5.88,0,0,1,1.26,3,2.62,2.62,0,0,1-.29,1.5,2.35,2.35,0,0,1-1.46.59c-3.3.71-5.62,1.86-6.94,3.45s-2,3.9-2,6.95a34.75,34.75,0,0,0,.2,3.74,29,29,0,0,1,.19,3.06,2.4,2.4,0,0,1-.92,2q-.93.74-5.44.73c-3,0-5.28-.5-6.81-1.51s-2.28-3-2.28-6a22.8,22.8,0,0,1,1.89-8.94q1.9-4.47,3.36-14.39a131.87,131.87,0,0,0,1.46-19.14V181.7q0-6.6,3.1-10.35a9.92,9.92,0,0,1,8-3.74h17.3a2.33,2.33,0,0,0,1.41-.29c.23-.2.34-.65.34-1.36q0-2.62,3.74-4.08a27,27,0,0,1,9.63-1.46q5.88,0,8.11,1.07t2.53,4.86c.06.58.22.94.48,1.07a3.72,3.72,0,0,0,1.46.19Zm-13.8,48.79a12.17,12.17,0,0,0,8-2.72,3.56,3.56,0,0,1,2.28-.68,3.81,3.81,0,0,1,2.77,1.55,6.11,6.11,0,0,1,1.36,4.18,9.64,9.64,0,0,1-1.51,5.1,36.1,36.1,0,0,1-5.78,6.56,2.89,2.89,0,0,0-1.17,1.85,1.42,1.42,0,0,0,.49,1.17,14.55,14.55,0,0,0,4,1,34.46,34.46,0,0,0,5.74.63,5.28,5.28,0,0,1,3.89,1.75,6.16,6.16,0,0,1,1.7,4.47,12.62,12.62,0,0,1-1.9,7.24c-1.26,1.85-3.26,2.77-6,2.77a59.81,59.81,0,0,1-8.69-1.12q-6.27-1.11-17.84-5.68a6.6,6.6,0,0,0-2.14-.59,5.91,5.91,0,0,0-2,.59,124.9,124.9,0,0,1-15.26,5.73,35.45,35.45,0,0,1-9,1.46q-9.24,0-9.24-8.94c0-2.72.57-4.64,1.7-5.74s3.15-2,6-2.57,4.87-1,6-1.12,1.65-.44,1.65-.92a2.4,2.4,0,0,0-1-1.61q-4.57-4.17-5.88-6.65a10.85,10.85,0,0,1-1.32-5.16,7.08,7.08,0,0,1,1.17-4.27c.78-1.07,1.52-1.61,2.24-1.61a2.13,2.13,0,0,1,1.55.49,9.08,9.08,0,0,0,4.13,2.24,30.06,30.06,0,0,0,6.66.58Zm-10.4-31a1.85,1.85,0,0,0,1.21-.25,2.28,2.28,0,0,0,.24-1.36c0-.74-.48-1.12-1.45-1.12h-9.62a1.47,1.47,0,0,0-1.07.3,2.05,2.05,0,0,0-.29,1.36c0,.71.45,1.07,1.36,1.07Zm.09,15.55c1,0,1.46-.47,1.46-1.41s-.48-1.41-1.46-1.41h-9.62a1.49,1.49,0,0,0-1.07.29,2.21,2.21,0,0,0-.29,1.41c0,.74.45,1.12,1.36,1.12Zm-7.77,23.42c-1,0-1.46.23-1.46.68s.5,1,1.51,1.55a5.25,5.25,0,0,0,2.52.88,4.55,4.55,0,0,0,2.53-1.12c1-.74,1.51-1.26,1.51-1.55s-.46-.44-1.36-.44Z" transform="translate(-1.86 -1.18)"/><path class="faa87411-8b6a-4efe-8a62-dc93717b2476" d="M386.08,230.16c-8.36,15.88-27,20-35.54,21.9-15.41,3.4-25.1.85-38.81-1.72a66.55,66.55,0,0,0-37.46,0c-13.71,2.57-23.4,5.12-38.81,1.72-8.52-1.89-27.18-6-35.54-21.9-5.61-10.65-4.19-21.35-3.57-25.7,3.94-27.86,30.64-42.73,34.91-45,22.43-13.29,29.2-23.6,30.87-30.87.15-.64.42-2,.91-3.75a57.86,57.86,0,0,1,3.5-9.48,25.68,25.68,0,0,1,2.52-4,36.34,36.34,0,0,1,17.21-12.1,28.71,28.71,0,0,1,13.46,0,36.34,36.34,0,0,1,17.21,12.1,26.44,26.44,0,0,1,2.52,4,57.86,57.86,0,0,1,3.5,9.48c.49,1.8.76,3.11.91,3.75,1.67,7.27,8.44,17.58,30.87,30.87,4.27,2.28,31,17.15,34.91,45C390.26,208.81,391.69,219.51,386.08,230.16Z" transform="translate(-1.86 -1.18)"/><path class="e34af053-7d80-4e2a-8269-de4fbd530174" d="M276.25,221.46v-1.31a33.68,33.68,0,0,1-5.3,5,19.93,19.93,0,0,1-5.66,2.93,21.21,21.21,0,0,1-6.67,1,19.52,19.52,0,0,1-8.86-2,20.53,20.53,0,0,1-7-5.78,26.39,26.39,0,0,1-4.52-8.84,37.91,37.91,0,0,1-1.54-11q0-12.49,6.11-19.48t16.06-7a21.58,21.58,0,0,1,9.72,2,27,27,0,0,1,7.71,6.08V163.36c0-2.74.55-4.8,1.64-6.2a5.55,5.55,0,0,1,4.66-2.1,5.75,5.75,0,0,1,4.66,1.93,8.57,8.57,0,0,1,1.64,5.68v58.79q0,3.81-1.76,5.72a6.26,6.26,0,0,1-9.06-.08A8.15,8.15,0,0,1,276.25,221.46ZM250,201.88a22.61,22.61,0,0,0,1.69,9.23,12.88,12.88,0,0,0,4.61,5.74,11.37,11.37,0,0,0,6.4,1.93,11.82,11.82,0,0,0,6.42-1.83,12.63,12.63,0,0,0,4.64-5.62,22.76,22.76,0,0,0,1.73-9.45,22.17,22.17,0,0,0-1.73-9.15,13.76,13.76,0,0,0-4.69-5.86,11.22,11.22,0,0,0-6.47-2,10.87,10.87,0,0,0-6.54,2.08,13.32,13.32,0,0,0-4.47,6A23.59,23.59,0,0,0,250,201.88Z" transform="translate(-1.86 -1.18)"/><path class="e34af053-7d80-4e2a-8269-de4fbd530174" d="M336.85,221.56v-1.71a29.9,29.9,0,0,1-5,5.08,18.36,18.36,0,0,1-5.76,3,23.3,23.3,0,0,1-7.13,1,18.41,18.41,0,0,1-8.67-2,14.58,14.58,0,0,1-5.93-5.52q-2.49-4.25-2.49-12.2V182.84q0-4,1.8-6a6.18,6.18,0,0,1,4.79-2,6.34,6.34,0,0,1,4.88,2c1.24,1.34,1.86,3.32,1.86,6v21.34A33,33,0,0,0,316,212a9.36,9.36,0,0,0,2.81,4.93,8,8,0,0,0,5.49,1.78,11.22,11.22,0,0,0,6.35-2,11.73,11.73,0,0,0,4.34-5.23q1.13-2.82,1.13-12.4V182.84c0-2.64.61-4.62,1.85-6a6.31,6.31,0,0,1,4.84-2,6.16,6.16,0,0,1,4.78,2q1.81,2,1.81,6v38.62q0,3.81-1.74,5.72a5.74,5.74,0,0,1-4.46,1.9,5.81,5.81,0,0,1-4.52-2A8,8,0,0,1,336.85,221.56Z" transform="translate(-1.86 -1.18)"/><ellipse class="faa87411-8b6a-4efe-8a62-dc93717b2476" cx="201.02" cy="106.83" rx="30.62" ry="39.37"/><ellipse class="faa87411-8b6a-4efe-8a62-dc93717b2476" cx="381.25" cy="106.83" rx="30.62" ry="39.37"/><ellipse class="faa87411-8b6a-4efe-8a62-dc93717b2476" cx="331.29" cy="39.37" rx="30.62" ry="39.37"/><ellipse class="faa87411-8b6a-4efe-8a62-dc93717b2476" cx="250.98" cy="39.37" rx="30.62" ry="39.37"/></svg>