<?xml version="1.0" encoding="utf-8"?>
<!-- Generator: Adobe Illustrator 16.0.0, SVG Export Plug-In . SVG Version: 6.00 Build 0)  -->
<!DOCTYPE svg PUBLIC "-//W3C//DTD SVG 1.1//EN" "http://www.w3.org/Graphics/SVG/1.1/DTD/svg11.dtd">
<svg version="1.1" id="图层_1" xmlns="http://www.w3.org/2000/svg" xmlns:xlink="http://www.w3.org/1999/xlink" x="0px" y="0px"
	 width="200px" height="200px" viewBox="0 0 200 200" enable-background="new 0 0 200 200" xml:space="preserve">
<g>
	<path fill="#FF5000" d="M100,16.131c11.23,0,22.223,2.15,32.736,6.69c10.035,4.301,18.877,10.273,26.762,17.92
		c7.886,7.646,13.859,16.728,17.921,26.763c4.302,10.274,6.688,21.266,6.688,32.737c0,11.229-2.148,22.221-6.688,32.731
		c-4.301,10.037-10.274,18.879-17.921,26.764c-7.646,7.886-16.727,13.859-26.762,17.922c-10.274,4.301-21.268,6.691-32.736,6.691
		c-11.23,0-22.222-2.15-32.735-6.691c-10.035-4.301-18.877-10.274-26.762-17.922c-7.886-7.646-13.859-16.727-17.922-26.764
		c-4.3-10.752-6.45-21.742-6.45-32.974c0-11.231,2.15-22.222,6.69-32.735c4.301-10.035,10.273-18.877,17.92-26.762
		c7.646-7.886,16.728-13.859,26.763-17.922C77.778,18.281,88.77,16.131,100,16.131z M100,4.422C47.193,4.422,4.422,47.193,4.422,100
		c0,52.809,42.771,95.578,95.578,95.578c52.809,0,95.578-42.771,95.578-95.578C195.578,47.193,152.809,4.422,100,4.422z"/>
	<path fill="#FF5000" d="M66.07,82.079c7.646,0,13.859-7.168,13.859-16.009c0-8.841-6.213-16.01-13.859-16.01
		s-13.858,7.169-13.858,16.01C52.212,74.911,58.424,82.079,66.07,82.079z M133.691,82.079c7.646,0,13.857-7.168,13.857-16.009
		c0-8.841-6.212-16.01-13.857-16.01c-7.646,0-13.857,7.169-13.857,16.01C119.834,74.911,126.045,82.079,133.691,82.079z
		 M139.904,101.912H60.097c-5.018,0-8.603,4.539-7.646,9.318c4.301,21.981,23.894,38.471,47.55,38.471
		c23.655,0,43.25-16.488,47.55-38.471C148.506,106.451,144.922,101.912,139.904,101.912L139.904,101.912z"/>
	<path fill="#FF689C" d="M23.537,97.134c-0.002,3.693,5.345,6.689,11.944,6.691c6.598,0.002,11.949-2.993,11.95-6.688
		c0-0.001,0-0.003,0-0.004c0-3.695-5.35-6.691-11.947-6.691C28.887,90.442,23.537,93.438,23.537,97.134z"/>
	<path fill="#FF689C" d="M154.959,97.134c0,3.693,5.35,6.689,11.947,6.689c6.596,0,11.945-2.996,11.945-6.689
		c0-3.695-5.351-6.691-11.945-6.691C160.309,90.442,154.959,93.438,154.959,97.134z"/>
</g>
</svg>
