<svg id="a59ee437-78fe-4313-a377-164cc94181ed" data-name="图层 1" xmlns="http://www.w3.org/2000/svg" viewBox="0 0 688 688"><defs><style>.b78c0929-a03a-4678-899c-a10814105bfa{fill:red;}.ecada029-68ff-40b8-9f70-976dd9e44470{fill:none;stroke:#fff;stroke-linecap:round;stroke-miterlimit:10;stroke-width:42px;}</style></defs><rect class="b78c0929-a03a-4678-899c-a10814105bfa" width="688" height="688" rx="94.28"/><path class="ecada029-68ff-40b8-9f70-976dd9e44470" d="M276.76-17.23c-1.56-1.54-3.94-3.79-7-6.3-11.37-9.32-27.42-22.48-45.5-19.6-10.44,1.66-20.79,8.54-25.9,18.2-5.84,11-3.25,22.78-2.1,28,6.83,31.2,11.46,62.91,19.6,93.8,15.9,60.36,13,73.83,9.8,82.6-1.81,4.95-10.12,27.79-32.2,36.4-24.28,9.46-50.16-4.15-63.7-16.8-24.19-22.59-26.42-58.28-18.9-83.3,14.76-49.18,68.81-62.66,76.3-64.4,3.26-.76,51.74-11.28,92.4,19.6,48,36.43,52.12,105.61,36,151.62A140.4,140.4,0,0,1,286,271.28l-.07-.06a167.85,167.85,0,0,1-120.07,50.35C73,321.57-3.13,244.92-2.54,152.13c.45-70.8,49.41-136.41,122-160.81" transform="translate(183.25 204.98)"/></svg>