<?xml version="1.0" encoding="utf-8"?>
<!-- Generator: Adobe Illustrator 16.0.0, SVG Export Plug-In . SVG Version: 6.00 Build 0)  -->
<!DOCTYPE svg PUBLIC "-//W3C//DTD SVG 1.1//EN" "http://www.w3.org/Graphics/SVG/1.1/DTD/svg11.dtd">
<svg version="1.1" id="图层_1" xmlns="http://www.w3.org/2000/svg" xmlns:xlink="http://www.w3.org/1999/xlink" x="0px" y="0px"
	 width="200px" height="200px" viewBox="0 0 200 200" enable-background="new 0 0 200 200" xml:space="preserve">
<path fill="#FF5000" d="M100,12.224c-48.477,0-87.776,39.3-87.776,87.776c0,48.477,39.3,87.775,87.776,87.775
	c48.477,0,87.775-39.299,87.775-87.775C187.775,51.524,148.477,12.224,100,12.224z M145.316,126.436
	c0,4.847-4.078,8.812-9.063,8.812H63.746c-4.985,0-9.063-3.965-9.063-8.812l0.042-43.529l44.189,23.435
	c0.68,0.358,1.492,0.358,2.172,0l44.23-23.457V126.436L145.316,126.436z M100.022,98.065L54.729,73.484
	c0.044-4.81,4.061-8.73,9.016-8.73h72.509c4.948,0,9.004,3.906,9.063,8.706L100.022,98.065L100.022,98.065z"/>
</svg>
